{"title":"Come.Out.And.Play.2012.DVDSCR.AC3-2.0.XviD-AXED","uid":8390610,"size":742273163,"categoryP":"video","categoryS":"movies","magnet":"?xt=urn:btih:1f7ac073325b03138102d07132e04d2ce1b7c243&amp;dn=Come.Out.And.Play.2012.DVDSCR.AC3-2.0.XviD-AXED&amp;tr=udp%3A%2F%2Ftracker.openbittorrent.com%3A80&amp;tr=udp%3A%2F%2Fopen.demonii.com%3A1337&amp;tr=udp%3A%2F%2Ftracker.coppersurfer.tk%3A6969&amp;tr=udp%3A%2F%2Fexodus.desync.com%3A6969","seeders":1,"leechers":0,"uploader":"R0thschild","files":5,"time":1366418192,"description":"-------------------------------------------- &lt;a href=&quot;\nhttp://www.imdb.com/title/tt2341664/&quot; rel=&quot;nofollow&quot; target=&quot;_NEW&quot;&gt;\nhttp://www.imdb.com/title/tt2341664/&lt;/a&gt;\n\n105 min  -  Horror  -  22 March 2013 (USA)\n4,6 Your rating:    -/10   Ratings: 4,6/10 from 511 users   Metascore: 44/100 \n\nSUBTiTLES.......: Bulgarian\n\nLanguage : English, Mexican\n\n\nFormat                           : AVI\nFormat/Info                      : Audio Video Interleave\nFile size                        : 699 MiB\nDuration                         : 1h 26mn\nOverall bit rate                 : 1 126 Kbps\n\nVideo\nID                               : 0\nFormat                           : MPEG-4 Visual\nFormat profile                   : Advanced Simple@L5\nFormat settings, BVOP            : 2\nFormat settings, QPel            : No\nFormat settings, GMC             : No warppoints\nFormat settings, Matrix          : Default (H.263)\nMuxing mode                      : Packed bitstream\nCodec ID                         : XVID\nCodec ID/Hint                    : XviD\nDuration                         : 1h 26mn\nBit rate                         : 926 Kbps\nWidth                            : 640 pixels\nHeight                           : 272 pixels\nDisplay aspect ratio             : 2.35:1\nFrame rate                       : 24.000 fps\nColor space                      : YUV\nChroma subsampling               : 4:2:0\nBit depth                        : 8 bits\nScan type                        : Progressive\nCompression mode                 : Lossy\nBits/(Pixel*Frame)               : 0.222\nStream size                      : 575 MiB (82%)\nWriting library                  : XviD 64\n\nAudio\nID                               : 1\nFormat                           : AC-3\nFormat/Info                      : Audio Coding 3\nMode extension                   : CM (complete main)\nCodec ID                         : 2000\nDuration                         : 1h 26mn\nBit rate mode                    : Constant\nBit rate                         : 192 Kbps\nChannel(s)                       : 2 channels\nChannel positions                : Front: L R\nSampling rate                    : 44.1 KHz\nBit depth                        : 16 bits\nCompression mode                 : Lossy\nDelay relative to video          : 69ms\nStream size                      : 119 MiB (17%)\nAlignment                        : Split accross interleaves\nInterleave, duration             : 70 ms (1.67 video frames)\nInterleave, preload duration     : 208 ms\nTitle                            : comeoutandplay - [1]\n\n--------------------------------------------\n\nMore at   &lt;a href=&quot;\nhttp://publichash.com/&quot; rel=&quot;nofollow&quot; target=&quot;_NEW&quot;&gt;\nhttp://publichash.com/&lt;/a&gt;\n\n--------------------------------------------\t","torrent":{"xt":"urn:btih:1f7ac073325b03138102d07132e04d2ce1b7c243","amp;dn":"Come.Out.And.Play.2012.DVDSCR.AC3-2.0.XviD-AXED","amp;tr":["udp%3A%2F%2Ftracker.openbittorrent.com%3A80","udp%3A%2F%2Fopen.demonii.com%3A1337","udp%3A%2F%2Ftracker.coppersurfer.tk%3A6969","udp%3A%2F%2Fexodus.desync.com%3A6969"],"infoHash":"1f7ac073325b03138102d07132e04d2ce1b7c243","infoHashBuffer":{"type":"Buffer","data":[31,122,192,115,50,91,3,19,129,2,208,113,50,224,77,44,225,183,194,67]},"announce":[],"urlList":[]}}